<svg version="1.1" id="Layer_1" xmlns="http://www.w3.org/2000/svg" xmlns:xlink="http://www.w3.org/1999/xlink" x="0px" y="0px"
	 width="32px" height="32px" viewBox="0 0 32 32" xml:space="preserve" stroke="#0059FF">
<g>
	<path fill="none"  stroke-width="3" stroke-linecap="round" stroke-miterlimit="10" d="M16.758,13.45
		c0.363,0.225,0.708,0.503,1.018,0.834l0,0c1.847,1.971,1.799,5.111-0.102,7.021l-7.539,7.57c-1.905,1.908-4.938,1.861-6.782-0.11
		l0,0c-1.846-1.974-1.799-5.114,0.104-7.021l5.906-5.934"/>
	<path fill="none"  stroke-width="3" stroke-linecap="round" stroke-miterlimit="10" d="M15.243,18.551
		c-0.365-0.228-0.706-0.504-1.017-0.838l0,0c-1.845-1.969-1.802-5.107,0.099-7.018l7.54-7.569c1.902-1.911,4.937-1.862,6.781,0.106
		l0,0c1.844,1.973,1.799,5.113-0.107,7.024l-5.904,5.93"/>
</g>
</svg>
